<?xml version="1.0" standalone="no"?>
<!DOCTYPE svg PUBLIC "-//W3C//DTD SVG 20010904//EN"
 "http://www.w3.org/TR/2001/REC-SVG-20010904/DTD/svg10.dtd">
<svg version="1.0" xmlns="http://www.w3.org/2000/svg"
 width="1024.000000pt" height="1024.000000pt" viewBox="0 0 1024.000000 1024.000000"
 preserveAspectRatio="xMidYMid meet">

<g transform="translate(0.000000,1024.000000) scale(0.100000,-0.100000)"
fill="#000000" stroke="none">
<path d="M5596 8260 c-25 -5 -48 -18 -62 -35 -12 -15 -56 -114 -98 -219 -41
-105 -121 -303 -176 -441 -56 -137 -112 -277 -124 -310 -36 -94 -312 -775
-576 -1420 -158 -387 -163 -403 -150 -436 18 -43 47 -49 239 -49 223 0 227 2
276 130 30 80 201 504 350 870 37 91 85 210 107 265 22 55 64 159 93 230 77
189 291 717 418 1035 60 151 109 288 109 304 0 17 -11 40 -27 55 -25 26 -28
26 -183 28 -86 1 -175 -2 -196 -7z"/>
<path d="M4085 7851 c-11 -5 -243 -234 -516 -508 -526 -527 -517 -516 -497
-589 5 -20 167 -190 511 -536 l503 -508 44 0 c43 0 46 3 156 118 129 133 143
157 123 205 -7 19 -155 176 -373 395 l-361 362 362 363 c199 199 366 373 371
386 5 13 7 34 4 46 -2 12 -58 77 -125 143 -125 124 -156 143 -202 123z"/>
<path d="M6153 7734 c-62 -63 -115 -125 -119 -136 -3 -11 -3 -36 1 -56 6 -32
57 -87 361 -392 195 -196 354 -360 354 -365 0 -6 -160 -170 -356 -365 -208
-208 -362 -369 -371 -389 -24 -56 -11 -79 117 -204 179 -176 102 -217 683 369
265 268 493 502 507 521 32 45 31 91 -3 140 -14 21 -242 253 -504 516 -470
468 -479 477 -518 477 -38 0 -46 -6 -152 -116z"/>
<path d="M3049 4402 c-30 -15 -34 -22 -37 -59 -4 -57 22 -83 82 -83 36 0 48 5
65 26 27 34 27 67 -1 97 -31 34 -67 40 -109 19z"/>
<path d="M1784 4400 c-105 -21 -211 -110 -262 -218 -25 -52 -27 -67 -27 -182
0 -119 1 -128 31 -190 63 -134 173 -209 316 -217 48 -3 102 0 128 7 25 6 54
14 65 16 14 4 26 -4 43 -28 53 -77 45 -75 104 -37 29 18 55 34 57 36 2 2 -16
30 -42 62 l-46 59 30 40 c62 84 87 223 63 342 -19 89 -42 138 -96 196 -92 99
-225 141 -364 114z m147 -131 c56 -17 104 -62 135 -125 35 -71 39 -182 11
-256 -10 -27 -22 -48 -26 -48 -5 0 -21 18 -36 40 -15 22 -30 40 -32 40 -3 0
-85 -53 -102 -66 -2 -2 15 -27 38 -55 29 -37 38 -56 31 -63 -6 -6 -41 -12 -78
-14 -56 -2 -74 1 -107 20 -177 102 -156 454 30 522 50 18 87 19 136 5z"/>
<path d="M3870 4000 l0 -400 75 0 75 0 0 88 c0 87 0 88 34 121 l34 33 78 -121
79 -121 88 0 88 0 -116 171 c-64 94 -115 175 -113 180 2 4 52 58 112 119 l109
110 -90 0 -90 0 -98 -105 c-54 -58 -102 -105 -107 -105 -4 0 -8 97 -8 215 l0
215 -75 0 -75 0 0 -400z"/>
<path d="M4458 4001 l2 -401 176 0 c150 0 183 3 236 21 112 37 173 93 226 207
24 51 27 68 27 172 0 110 -2 118 -32 181 -40 81 -102 140 -191 182 -67 32 -68
32 -257 35 l-190 4 3 -401z m389 235 c89 -42 130 -133 119 -263 -7 -91 -29
-145 -74 -184 -53 -47 -91 -59 -187 -59 l-85 0 0 265 0 265 88 0 c71 0 97 -5
139 -24z"/>
<path d="M6270 4330 l0 -70 115 0 115 0 0 -330 0 -330 85 0 85 0 0 330 0 330
115 0 115 0 0 70 0 70 -315 0 -315 0 0 -70z"/>
<path d="M8120 4000 l0 -400 75 0 75 0 2 400 3 400 -77 0 -78 0 0 -400z"/>
<path d="M3482 4188 c-120 -19 -185 -81 -221 -213 -41 -150 37 -318 173 -370
60 -23 174 -17 232 13 48 24 110 91 130 138 25 61 22 64 -60 64 -68 0 -74 -2
-80 -23 -3 -12 -19 -36 -36 -52 -26 -25 -40 -30 -80 -30 -84 0 -130 63 -130
180 0 112 44 175 122 175 61 0 117 -39 118 -82 0 -16 11 -18 81 -18 79 0 80 0
74 23 -44 148 -164 221 -323 195z"/>
<path d="M5398 4187 c-92 -24 -172 -101 -197 -193 -16 -56 -13 -162 5 -223 22
-75 89 -140 168 -165 130 -41 292 9 342 106 27 52 21 58 -60 58 -65 0 -75 -3
-81 -19 -13 -41 -118 -54 -172 -21 -34 20 -63 66 -63 100 0 19 5 20 205 20
l205 0 0 23 c0 49 -23 143 -45 188 -25 48 -66 89 -116 114 -39 21 -135 27
-191 12z m140 -127 c27 -17 62 -70 62 -95 0 -3 -58 -5 -130 -5 -84 0 -130 4
-130 10 0 25 33 72 63 90 41 26 93 25 135 0z"/>
<path d="M7050 4190 c-96 -19 -163 -70 -208 -155 -22 -43 -26 -63 -27 -140 0
-79 3 -97 28 -147 54 -111 151 -164 281 -156 164 11 269 123 270 288 1 99 -18
160 -67 216 -46 52 -90 77 -165 93 -58 12 -61 12 -112 1z m134 -150 c61 -54
78 -168 38 -252 -50 -102 -176 -106 -231 -8 -25 45 -29 152 -7 203 36 87 134
115 200 57z"/>
<path d="M7673 4181 c-74 -21 -125 -58 -163 -118 -83 -131 -59 -310 55 -411
55 -49 119 -67 214 -60 82 6 136 32 189 93 98 112 101 302 6 413 -42 50 -78
70 -154 88 -69 17 -71 16 -147 -5z m167 -146 c57 -54 70 -160 31 -243 -26 -56
-63 -82 -116 -82 -79 0 -129 57 -141 162 -8 72 19 144 66 176 48 33 118 27
160 -13z"/>
<path d="M8525 4191 c-56 -9 -125 -50 -152 -90 -26 -38 -31 -112 -12 -155 19
-42 80 -75 184 -101 125 -32 147 -46 143 -88 -4 -42 -37 -59 -105 -54 -57 4
-93 27 -93 59 0 16 -9 18 -75 18 -70 0 -75 -1 -75 -22 0 -43 48 -107 103 -135
46 -24 63 -27 154 -27 97 -1 103 0 145 29 54 38 88 102 88 168 0 89 -38 118
-217 166 -80 22 -100 31 -110 51 -10 20 -10 29 1 45 33 50 142 40 171 -15 15
-29 19 -30 80 -30 63 0 65 1 65 25 0 71 -64 128 -169 150 -40 8 -75 14 -79 14
-4 -1 -25 -4 -47 -8z"/>
<path d="M2370 3953 c5 -244 9 -261 62 -310 53 -50 154 -68 221 -39 18 7 47
28 65 46 l32 34 0 -42 0 -42 75 0 75 0 0 290 0 290 -79 0 -80 0 -3 -199 -3
-200 -29 -30 c-24 -25 -38 -31 -74 -31 -100 0 -112 29 -112 275 l0 185 -77 0
-78 0 5 -227z"/>
<path d="M3020 3890 l0 -290 75 0 75 0 0 290 0 290 -75 0 -75 0 0 -290z"/>
<path d="M5753 4168 c2 -7 46 -138 98 -290 l94 -278 85 0 85 0 78 213 c43 116
92 247 107 290 l29 77 -78 0 c-91 0 -76 18 -136 -170 -46 -142 -77 -230 -81
-230 -2 0 -12 30 -24 68 -11 37 -39 127 -62 200 l-42 132 -79 0 c-59 0 -78 -3
-74 -12z"/>
</g>
</svg>
